<svg width="1440" height="222" viewBox="0 0 1440 222" fill="none" xmlns="http://www.w3.org/2000/svg">
<path fill-rule="evenodd" clip-rule="evenodd" d="M1263 30C1279.57 30 1293 16.5685 1293 0H1440V46.2782C1435.17 42.9491 1429.31 41 1423 41C1406.43 41 1393 54.4315 1393 71C1393 73.4224 1393.29 75.7778 1393.83 78.0339L1333.7 84.5898C1340.47 80.4665 1345 73.0117 1345 64.5C1345 51.5213 1334.48 41 1321.5 41C1308.52 41 1298 51.5213 1298 64.5C1298 74.8228 1304.66 83.591 1313.91 86.7473L1158.64 103.676C1160.16 100.087 1161 96.1415 1161 92C1161 75.4315 1147.57 62 1131 62C1114.43 62 1101 75.4315 1101 92C1101 98.4681 1103.05 104.458 1106.53 109.358L972.18 124.005C969.029 110.811 957.16 101 943 101C926.613 101 913.294 114.139 913.005 130.457L807.032 142.011C813.775 135.798 818 126.892 818 117C818 98.2223 802.778 83 784 83C765.222 83 750 98.2223 750 117C750 129.539 756.788 140.493 766.89 146.388L598.232 164.776C598.734 162.599 599 160.33 599 158C599 141.431 585.569 128 569 128C552.431 128 539 141.431 539 158C539 162.624 540.046 167.004 541.915 170.916L367.321 189.952C373.333 183.373 377 174.615 377 165C377 144.565 360.435 128 340 128C319.565 128 303 144.565 303 165C303 177.502 309.2 188.555 318.694 195.254L75.0045 221.822C77.5774 215.729 79 209.03 79 202C79 173.833 56.1665 151 28 151C17.6592 151 8.03719 154.078 0 159.367V0H203.09C207.656 20.5967 226.029 36 248 36C269.971 36 288.344 20.5967 292.91 0H632.095C629.465 5.79162 628 12.2248 628 19C628 44.4051 648.595 65 674 65C699.405 65 720 44.4051 720 19C720 12.2248 718.535 5.79162 715.905 0H1005.74C1004.61 3.80226 1004 7.83016 1004 12C1004 35.196 1022.8 54 1046 54C1069.2 54 1088 35.196 1088 12C1088 7.83016 1087.39 3.80226 1086.26 0H1233C1233 16.5685 1246.43 30 1263 30ZM66 105C92.5097 105 114 83.5097 114 57C114 30.4903 92.5097 9 66 9C39.4903 9 18 30.4903 18 57C18 83.5097 39.4903 105 66 105ZM172 188C188.569 188 202 174.569 202 158C202 141.431 188.569 128 172 128C155.431 128 142 141.431 142 158C142 174.569 155.431 188 172 188ZM194 71C194 80.9411 185.941 89 176 89C166.059 89 158 80.9411 158 71C158 61.0589 166.059 53 176 53C185.941 53 194 61.0589 194 71ZM454.5 88C473.002 88 488 73.0015 488 54.5C488 35.9985 473.002 21 454.5 21C435.998 21 421 35.9985 421 54.5C421 73.0015 435.998 88 454.5 88ZM332 85C332 99.3594 320.359 111 306 111C291.641 111 280 99.3594 280 85C280 70.6406 291.641 59 306 59C320.359 59 332 70.6406 332 85ZM598.5 97C608.165 97 616 89.165 616 79.5C616 69.835 608.165 62 598.5 62C588.835 62 581 69.835 581 79.5C581 89.165 588.835 97 598.5 97ZM886 32C886 43.0457 877.27 52 866.5 52C855.73 52 847 43.0457 847 32C847 20.9543 855.73 12 866.5 12C877.27 12 886 20.9543 886 32Z" fill="#FCDF03"/>
</svg>
