<?xml version="1.0" encoding="iso-8859-1"?>
<!-- Generator: Adobe Illustrator 18.0.0, SVG Export Plug-In . SVG Version: 6.00 Build 0)  -->
<!DOCTYPE svg PUBLIC "-//W3C//DTD SVG 1.1//EN" "http://www.w3.org/Graphics/SVG/1.1/DTD/svg11.dtd">
<svg version="1.1" id="Capa_1" xmlns="http://www.w3.org/2000/svg" xmlns:xlink="http://www.w3.org/1999/xlink" x="0px" y="0px"
	 viewBox="0 0 281.761 281.761" style="enable-background:new 0 0 281.761 281.761;" xml:space="preserve">
<g>
	<path d="M208.861,113.152l-18.547-32.56c-0.629-1.105-1.803-1.787-3.074-1.787h-24.217c-1.954,0-3.538,1.584-3.538,3.538v32.56
		c0,1.954,1.584,3.538,3.538,3.538h42.764C208.501,118.441,210.205,115.511,208.861,113.152z"/>
	<path d="M80.924,175.863c-7.469,0-13.547,6.077-13.547,13.546s6.077,13.547,13.547,13.547s13.546-6.077,13.546-13.547
		S88.394,175.863,80.924,175.863z"/>
	<path d="M252.78,90.063l-23.643-40.555c-8.371-14.36-23.898-23.281-40.52-23.281H41.289C18.522,26.228,0,44.75,0,67.516v111.132
		c0,14.724,7.749,27.673,19.381,34.985c3.338,8.478,8.443,16.244,15.118,22.832c12.458,12.297,28.946,19.069,46.426,19.069
		s33.967-6.772,46.426-19.069c4.982-4.917,9.09-10.491,12.241-16.528h3.345c3.151,6.036,7.259,11.61,12.241,16.528
		c12.458,12.297,28.946,19.069,46.426,19.069s33.967-6.772,46.426-19.069c6.849-6.76,12.046-14.76,15.376-23.497
		c11.061-7.415,18.356-20.032,18.356-34.32v-49.169C281.761,110.996,269.555,95.312,252.78,90.063z M251.761,178.649
		c0,6.235-5.054,11.289-11.289,11.289h-2.758c-0.284,19.675-16.369,35.596-36.111,35.596c-19.742,0-35.826-15.921-36.111-35.596
		h-48.458c-0.284,19.675-16.369,35.596-36.111,35.596c-19.742,0-35.826-15.921-36.111-35.596h-3.525
		c-6.235,0-11.289-5.054-11.289-11.289V67.516c0-6.235,5.054-11.289,11.289-11.289h147.327c6.014,0,11.575,3.195,14.603,8.39
		l31.233,53.572h6.021c6.235,0,11.289,5.054,11.289,11.289V178.649z"/>
	<path d="M201.603,175.863c-7.469,0-13.547,6.077-13.547,13.546s6.077,13.547,13.547,13.547c7.469,0,13.547-6.077,13.547-13.547
		S209.073,175.863,201.603,175.863z"/>
</g>
<g>
</g>
<g>
</g>
<g>
</g>
<g>
</g>
<g>
</g>
<g>
</g>
<g>
</g>
<g>
</g>
<g>
</g>
<g>
</g>
<g>
</g>
<g>
</g>
<g>
</g>
<g>
</g>
<g>
</g>
</svg>
